<svg width="37" height="44" viewBox="0 0 37 44" fill="none" xmlns="http://www.w3.org/2000/svg">
<path d="M30.2762 23.3913C30.2265 17.8637 34.8023 15.1745 35.0115 15.0493C32.4201 11.2711 28.4034 10.7548 26.9919 10.7137C23.6184 10.3587 20.3461 12.7323 18.6276 12.7323C16.8748 12.7323 14.2285 10.748 11.3764 10.8063C7.70616 10.8629 4.27263 12.9878 2.3895 16.2876C-1.4968 23.0157 1.40164 32.903 5.12501 38.3414C6.98756 41.0049 9.16396 43.9788 12.0127 43.8742C14.7996 43.7593 15.8407 42.0974 19.2039 42.0974C22.5362 42.0974 23.5138 43.8742 26.4191 43.8073C29.4101 43.7593 31.2933 41.1318 33.0906 38.4443C35.243 35.3916 36.1074 32.3851 36.1417 32.2307C36.0714 32.2067 30.3328 30.0166 30.2762 23.3913Z" fill="white"/>
<path d="M24.7881 7.13601C26.2871 5.26146 27.3127 2.71118 27.028 0.123169C24.8584 0.219212 22.1452 1.62384 20.5828 3.45723C19.2005 5.07281 17.9656 7.72085 18.2846 10.2111C20.7217 10.3929 23.224 8.98141 24.7881 7.13601Z" fill="white"/>
</svg>
