<svg width="42" height="48" viewBox="0 0 42 48" fill="none" xmlns="http://www.w3.org/2000/svg">
<path d="M0.846046 1.57205C0.259363 2.27604 -0.0367588 3.17728 0.0180446 4.09205V43.9081C-0.0367588 44.8228 0.259363 45.7241 0.846046 46.428L0.972046 46.554L23.274 24.27V23.748L0.972046 1.44604L0.846046 1.57205Z" fill="url(#paint0_linear)"/>
<path d="M30.654 31.704L23.274 24.27V23.748L30.654 16.296L30.816 16.386L39.654 21.408C42.174 22.83 42.174 25.17 39.654 26.61L30.852 31.614L30.654 31.704Z" fill="url(#paint1_linear)"/>
<path d="M30.8701 31.596L23.2741 24L0.846069 46.428C1.35972 46.8795 2.01497 47.1374 2.69859 47.1572C3.38221 47.1769 4.05124 46.9572 4.59007 46.536L30.8881 31.596" fill="url(#paint2_linear)"/>
<path d="M30.8701 16.4041L4.57212 1.46406C4.0333 1.04289 3.36427 0.823176 2.68065 0.842896C1.99703 0.862615 1.34178 1.12053 0.828125 1.57206L23.2741 24.0001L30.8701 16.4041Z" fill="url(#paint3_linear)"/>
<path opacity="0.2" d="M30.6541 31.4341L4.57207 46.2841C4.05239 46.6726 3.42094 46.8826 2.77207 46.8826C2.1232 46.8826 1.49175 46.6726 0.972069 46.2841L0.846069 46.4101L0.972069 46.5361C1.49057 46.9274 2.12247 47.1391 2.77207 47.1391C3.42167 47.1391 4.05357 46.9274 4.57207 46.5361L30.8701 31.5961L30.6541 31.4341Z" fill="#222222"/>
<path opacity="0.12" d="M0.846046 46.176C0.259363 45.472 -0.0367588 44.5708 0.0180446 43.656V43.926C-0.0367588 44.8408 0.259363 45.742 0.846046 46.446L0.972046 46.32L0.846046 46.176ZM39.654 26.34L30.654 31.434L30.816 31.596L39.654 26.592C40.1555 26.3564 40.586 25.9927 40.902 25.5377C41.2181 25.0826 41.4085 24.5522 41.454 24C41.3528 24.5017 41.1379 24.9735 40.8259 25.3791C40.5139 25.7848 40.113 26.1135 39.654 26.34Z" fill="#222222"/>
<path opacity="0.25" d="M4.572 1.7154L39.654 21.6594C40.1129 21.8859 40.5138 22.2146 40.8258 22.6203C41.1379 23.0259 41.3528 23.4977 41.454 23.9994C41.4084 23.4472 41.218 22.9168 40.902 22.4617C40.5859 22.0067 40.1555 21.643 39.654 21.4074L4.572 1.4634C2.052 0.0413985 0 1.2294 0 4.1094V4.3794C0.054 1.4814 2.07 0.293401 4.572 1.7154Z" fill="white"/>
<defs>
<linearGradient id="paint0_linear" x1="21.294" y1="3.67805" x2="-8.90995" y2="33.882" gradientUnits="userSpaceOnUse">
<stop stop-color="#00A0FF"/>
<stop offset="0.01" stop-color="#00A1FF"/>
<stop offset="0.26" stop-color="#00BEFF"/>
<stop offset="0.51" stop-color="#00D2FF"/>
<stop offset="0.76" stop-color="#00DFFF"/>
<stop offset="1" stop-color="#00E3FF"/>
</linearGradient>
<linearGradient id="paint1_linear" x1="42.948" y1="24" x2="-0.593943" y2="24" gradientUnits="userSpaceOnUse">
<stop stop-color="#FFE000"/>
<stop offset="0.41" stop-color="#FFBD00"/>
<stop offset="0.78" stop-color="#FFA500"/>
<stop offset="1" stop-color="#FF9C00"/>
</linearGradient>
<linearGradient id="paint2_linear" x1="26.7481" y1="28.14" x2="-14.2199" y2="69.09" gradientUnits="userSpaceOnUse">
<stop stop-color="#FF3A44"/>
<stop offset="1" stop-color="#C31162"/>
</linearGradient>
<linearGradient id="paint3_linear" x1="-4.80587" y1="-11.6759" x2="13.4821" y2="6.61206" gradientUnits="userSpaceOnUse">
<stop stop-color="#32A071"/>
<stop offset="0.07" stop-color="#2DA771"/>
<stop offset="0.48" stop-color="#15CF74"/>
<stop offset="0.8" stop-color="#06E775"/>
<stop offset="1" stop-color="#00F076"/>
</linearGradient>
</defs>
</svg>
