<svg width="41" height="47" viewBox="0 0 41 47" fill="none" xmlns="http://www.w3.org/2000/svg">
<mask id="mask0" mask-type="alpha" maskUnits="userSpaceOnUse" x="0" y="0" width="41" height="47">
<path d="M18.34 0.826509C17.717 0.864869 17.0974 0.959229 16.4918 1.11295C15.9388 1.25323 15.3911 1.41675 14.8398 1.56487C9.70483 2.89599 5.78343 5.86035 2.99883 10.3787C0.483594 14.4589 -0.370686 18.8809 0.142834 23.5975C0.588874 27.6936 2.43127 31.1682 5.05235 34.2633C7.38335 37.016 10.1304 39.2946 13.1424 41.2733C16.2666 43.3257 19.5936 44.9316 23.1614 46.0437C24.0422 46.3181 24.9472 46.4844 25.851 46.6566C26.0442 46.6933 26.2545 46.7286 26.3878 46.5312C26.4973 46.3694 26.4542 46.2022 26.3814 46.0482C26.3032 45.8833 26.1935 45.7351 26.0767 45.5943C25.4775 44.8722 25.0399 44.0577 24.6714 43.2003C24.2374 42.1898 24.3931 41.0754 25.8247 40.7036C29.5585 39.7334 32.6522 37.6742 35.1829 34.795C38.8246 30.6513 40.5264 25.7765 40.238 20.282C39.9322 14.46 37.5685 9.55495 33.1568 5.71979C29.3051 2.37183 24.829 0.780029 19.8364 0.780029C19.3424 0.780029 18.844 0.795709 18.34 0.826509Z" fill="white"/>
</mask>
<g mask="url(#mask0)">
<path d="M41.669 -0.619995L41.6682 19.9502L35.9004 19.9067L35.8416 19.9064C34.4777 19.9064 33.1388 20.2755 31.9661 20.9755L30.5586 21.8163L29.0916 20.1637C28.9735 20.0313 28.8413 19.9109 28.6977 19.8056C28.1548 19.4072 27.4895 19.2445 26.8245 19.347C26.1592 19.4495 25.5734 19.8048 25.1753 20.3477L24.2552 21.6021L23.0137 17.0689C22.7958 16.2723 22.1608 15.6619 21.355 15.4763C20.772 15.343 20.1717 15.4432 19.6643 15.761C19.157 16.0785 18.8042 16.5747 18.67 17.1577L17.5503 22.0274L16.861 18.9345C16.6624 18.0461 15.9977 17.3315 15.1266 17.0703C14.4812 16.8763 13.8 16.9451 13.2075 17.2643C12.6148 17.5833 12.1816 18.1136 11.9878 18.7584L11.1663 21.4932L10.6212 19.8443C10.2787 18.8102 9.31748 18.1158 8.22856 18.1158H6.71992C5.94684 18.1158 5.31992 18.7425 5.31992 19.5158C5.31992 20.2892 5.94684 20.9158 6.71992 20.9158H8.02612L9.62268 25.7436C9.91388 26.6219 10.8662 27.1013 11.7459 26.8101C12.2653 26.6382 12.6694 26.2221 12.8264 25.6985L14.3611 20.5902L15.8936 27.4642C15.9913 27.9021 16.2534 28.2759 16.6325 28.5167C16.9049 28.69 17.2146 28.7791 17.5302 28.7791C17.6528 28.7791 17.7768 28.7656 17.8995 28.7382C18.5261 28.5982 19.0251 28.1034 19.1707 27.4751L20.9005 19.9529L21.8612 23.4596C22.0188 24.0367 22.3924 24.5177 22.912 24.8143C23.4317 25.1102 24.0357 25.1861 24.6128 25.0287C25.0983 24.896 25.5298 24.5989 25.8277 24.1929L27.2282 22.2831L28.4647 23.6755C29.3571 24.6793 30.8405 24.9083 31.9938 24.2201L33.4014 23.3795C34.1501 22.9324 34.9926 22.7005 35.8788 22.7067L41.6682 22.7502L41.669 48.0852H-1.40002V-0.619995H41.669Z" fill="#00BF69"/>
</g>
</svg>
